<svg xmlns="http://www.w3.org/2000/svg" xmlns:xlink="http://www.w3.org/1999/xlink" width="262.5" zoomAndPan="magnify" viewBox="0 13 262.5 41" height="41" preserveAspectRatio="xMidYMid meet" version="1.0"><defs><g/><clipPath id="41e39e7519"><path d="M 0.71875 0 L 261.285156 0 L 261.285156 67.003906 L 0.71875 67.003906 Z M 0.71875 0 " clip-rule="nonzero"/></clipPath><clipPath id="30a770323d"><path d="M 0.71875 13.917969 L 56.554688 13.917969 L 56.554688 53.378906 L 0.71875 53.378906 Z M 0.71875 13.917969 " clip-rule="nonzero"/></clipPath><clipPath id="9aa1e18c4f"><path d="M 60 15 L 261.285156 15 L 261.285156 52 L 60 52 Z M 60 15 " clip-rule="nonzero"/></clipPath><clipPath id="f4152333f2"><rect x="0" width="202" y="0" height="37"/></clipPath></defs><g clip-path="url(#41e39e7519)"><path fill="none" d="M 0.71875 0 L 261.285156 0 L 261.285156 67.003906 L 0.71875 67.003906 Z M 0.71875 0 " fill-opacity="1" fill-rule="nonzero"/><path fill="none" d="M 0.71875 0 L 261.285156 0 L 261.285156 67.003906 L 0.71875 67.003906 Z M 0.71875 0 " fill-opacity="1" fill-rule="nonzero"/></g><g clip-path="url(#30a770323d)"><path fill="#00bf63" d="M 48.164062 27.359375 C 48.75 27.597656 49.359375 27.785156 49.972656 27.914062 L 49.972656 32.609375 L 48.164062 33.320312 Z M 44.484375 34.773438 L 44.484375 32.777344 L 46.996094 32.777344 L 46.996094 33.785156 Z M 41.804688 35.828125 L 41.804688 28.574219 C 42.328125 28.394531 42.832031 28.179688 43.3125 27.941406 L 43.3125 35.234375 Z M 23.398438 28.898438 C 24.320312 29.558594 25.230469 30.082031 26.125 30.492188 L 26.125 42.015625 L 23.398438 43.089844 Z M 19.003906 44.824219 L 19.003906 41.300781 L 21.449219 41.300781 L 21.449219 43.859375 Z M 15.59375 41.300781 L 18.417969 41.300781 L 18.417969 45.054688 L 15.59375 46.167969 Z M 9.902344 48.410156 L 9.902344 46.25 C 10.648438 45.679688 11.351562 45.121094 12.003906 44.578125 C 12.585938 44.09375 13.128906 43.617188 13.644531 43.152344 L 13.644531 46.9375 Z M 9.902344 40.128906 C 11.984375 37.765625 13.042969 35.148438 13.644531 32.199219 L 13.644531 41.554688 C 12.925781 42.238281 12.136719 42.945312 11.253906 43.675781 C 10.828125 44.03125 10.375 44.398438 9.902344 44.765625 Z M 21.449219 19.507812 C 21.265625 21.089844 21.136719 22.554688 21.019531 23.914062 C 21.007812 24.070312 20.992188 24.226562 20.980469 24.378906 L 20.035156 24.378906 C 18.710938 22.785156 17.402344 20.816406 16.140625 18.40625 L 21.449219 18.40625 Z M 19.003906 36.863281 C 19.699219 35.695312 20.222656 34.542969 20.625 33.375 L 21.449219 33.375 L 21.449219 39.347656 L 19.003906 39.347656 Z M 18.417969 37.785156 L 18.417969 39.347656 L 17.269531 39.347656 C 17.691406 38.820312 18.070312 38.300781 18.417969 37.785156 Z M 15.59375 24.378906 L 15.59375 19.460938 C 16.628906 21.367188 17.699219 22.996094 18.785156 24.378906 Z M 15.753906 39.347656 L 15.59375 39.347656 L 15.59375 33.375 L 19.386719 33.375 C 18.65625 35.355469 17.539062 37.285156 15.753906 39.347656 Z M 20.769531 26.648438 C 20.589844 28.351562 20.367188 29.917969 19.988281 31.425781 L 15.59375 31.425781 L 15.59375 26.332031 L 20.464844 26.332031 C 20.566406 26.4375 20.667969 26.546875 20.769531 26.648438 Z M 21.449219 30.222656 L 21.449219 31.425781 L 21.191406 31.425781 C 21.289062 31.027344 21.371094 30.628906 21.449219 30.222656 Z M 26.125 22.425781 L 26.125 29.40625 C 25.230469 28.960938 24.320312 28.394531 23.398438 27.679688 L 23.398438 17.957031 C 24.28125 19.6875 25.195312 21.167969 26.125 22.425781 Z M 30.390625 26.761719 L 30.390625 30.730469 C 29.175781 30.566406 27.871094 30.21875 26.515625 29.59375 L 26.515625 22.941406 C 27.796875 24.585938 29.101562 25.832031 30.390625 26.761719 Z M 37.816406 29.265625 C 38.027344 29.265625 38.234375 29.253906 38.441406 29.242188 C 37.433594 29.773438 36.320312 30.199219 35.144531 30.480469 L 35.144531 28.964844 C 36.078125 29.179688 36.96875 29.265625 37.789062 29.265625 C 37.796875 29.265625 37.808594 29.265625 37.816406 29.265625 Z M 39.464844 29.804688 C 39.972656 29.507812 40.453125 29.191406 40.90625 28.851562 C 41.078125 28.804688 41.246094 28.757812 41.414062 28.707031 L 41.414062 35.984375 L 39.464844 36.753906 Z M 37.488281 30.765625 C 38.039062 30.546875 38.570312 30.300781 39.074219 30.027344 L 39.074219 36.90625 L 37.488281 37.53125 Z M 35.144531 31.488281 C 35.816406 31.34375 36.46875 31.152344 37.097656 30.921875 L 37.097656 37.6875 L 35.144531 38.457031 Z M 33.121094 31.785156 C 33.675781 31.746094 34.21875 31.664062 34.753906 31.5625 L 34.753906 38.609375 L 33.121094 39.253906 Z M 32.125 30.847656 C 32.117188 30.847656 32.105469 30.847656 32.097656 30.847656 C 31.671875 30.847656 31.234375 30.824219 30.78125 30.777344 L 30.78125 27.035156 C 32.148438 27.957031 33.488281 28.53125 34.753906 28.867188 L 34.753906 30.566406 C 33.902344 30.742188 33.023438 30.847656 32.125 30.847656 Z M 30.78125 31.757812 C 31.230469 31.800781 31.671875 31.820312 32.09375 31.824219 C 32.105469 31.824219 32.117188 31.824219 32.128906 31.824219 C 32.332031 31.824219 32.53125 31.808594 32.734375 31.800781 L 32.734375 39.40625 L 30.78125 40.175781 Z M 28.46875 41.089844 L 26.515625 41.859375 L 26.515625 30.664062 C 27.179688 30.945312 27.832031 31.167969 28.46875 31.339844 Z M 28.855469 31.4375 C 29.382812 31.5625 29.894531 31.652344 30.390625 31.714844 L 30.390625 40.332031 L 28.855469 40.9375 Z M 43.3125 26.488281 L 43.3125 26.828125 C 43.15625 26.914062 42.996094 27 42.832031 27.078125 C 43.003906 26.882812 43.164062 26.6875 43.3125 26.488281 Z M 44.484375 29.667969 L 46.996094 29.667969 L 46.996094 31.605469 L 44.484375 31.605469 Z M 45.03125 26.90625 L 46.996094 26.90625 L 46.996094 28.5 L 44.484375 28.5 L 44.484375 27.277344 C 44.671875 27.15625 44.855469 27.035156 45.03125 26.90625 Z M 45.734375 25.035156 C 45.390625 24.667969 45.082031 24.257812 44.816406 23.800781 L 46.753906 23.800781 C 46.476562 24.21875 46.136719 24.632812 45.734375 25.035156 Z M 44.484375 25.738281 L 44.484375 24.371094 C 44.730469 24.757812 45.007812 25.113281 45.308594 25.433594 C 45.191406 25.535156 45.074219 25.636719 44.949219 25.738281 Z M 46.996094 25.738281 L 46.5 25.738281 C 46.484375 25.722656 46.46875 25.714844 46.453125 25.699219 C 46.644531 25.507812 46.828125 25.308594 46.996094 25.109375 Z M 49.78125 27.273438 C 49.230469 27.140625 48.6875 26.957031 48.164062 26.726562 L 48.164062 25.292969 C 48.582031 26.089844 49.117188 26.75 49.78125 27.273438 Z M 51.226562 28.113281 C 51.566406 28.257812 51.929688 28.378906 52.316406 28.476562 L 52.316406 31.683594 L 50.363281 32.453125 L 50.363281 27.988281 C 50.652344 28.039062 50.941406 28.082031 51.226562 28.113281 Z M 54.238281 31.636719 L 52.707031 31.636719 L 52.707031 28.570312 C 53.183594 28.667969 53.695312 28.738281 54.238281 28.769531 Z M 54.628906 31.636719 L 54.628906 28.785156 C 54.792969 28.792969 54.953125 28.800781 55.121094 28.800781 C 55.546875 28.800781 55.992188 28.78125 56.457031 28.746094 L 56.410156 28.164062 C 55.4375 28.238281 54.550781 28.226562 53.746094 28.132812 C 54.367188 28.082031 54.960938 27.988281 55.488281 27.859375 L 55.347656 27.292969 C 54.242188 27.5625 52.867188 27.679688 51.453125 27.550781 C 49.816406 26.847656 48.726562 25.574219 48.164062 23.71875 L 48.164062 21.855469 L 46.996094 21.855469 L 46.996094 22.628906 L 44.484375 22.628906 L 44.484375 21.855469 L 43.3125 21.855469 L 43.3125 24.648438 C 42.765625 25.785156 41.765625 26.949219 40.457031 27.953125 C 39.609375 28.167969 38.722656 28.292969 37.816406 28.292969 C 37.808594 28.292969 37.800781 28.292969 37.792969 28.292969 C 33.792969 28.28125 28.0625 26.074219 23.398438 15.691406 L 23.398438 13.917969 L 21.449219 13.917969 L 21.449219 16.457031 L 15.59375 16.457031 L 15.59375 13.917969 L 13.644531 13.917969 L 13.644531 20.015625 C 13.53125 21.363281 13.445312 22.652344 13.367188 23.859375 C 12.785156 32.660156 12.398438 38.472656 4.023438 43.300781 L 4.605469 44.316406 C 6.550781 43.195312 8.09375 42.015625 9.320312 40.761719 L 9.320312 45.222656 C 8.996094 45.46875 8.667969 45.71875 8.332031 45.96875 L 9.03125 46.910156 C 9.128906 46.835938 9.222656 46.761719 9.320312 46.691406 L 9.320312 48.640625 L 0.722656 52.03125 L 12.546875 52.03125 L 13.644531 51.523438 L 13.644531 53.074219 L 15.59375 53.074219 L 15.59375 50.617188 L 21.449219 47.894531 L 21.449219 53.074219 L 23.398438 53.074219 L 23.398438 46.988281 L 43.3125 37.734375 L 43.3125 40.324219 L 44.484375 40.324219 L 44.484375 37.191406 L 46.996094 36.023438 L 46.996094 40.324219 L 48.164062 40.324219 L 48.164062 35.480469 L 56.4375 31.636719 L 54.628906 31.636719 " fill-opacity="1" fill-rule="nonzero"/></g><g clip-path="url(#9aa1e18c4f)"><g transform="matrix(1, 0, 0, 1, 60, 15)"><g clip-path="url(#f4152333f2)"><g fill="#000000" fill-opacity="1"><g transform="translate(0.30952, 27.072842)"><g><path d="M 13.03125 -17.625 L 13.03125 -14.1875 L 5.84375 -14.1875 L 5.84375 -10.46875 L 11.21875 -10.46875 L 11.21875 -7.125 L 5.84375 -7.125 L 5.84375 0 L 1.5625 0 L 1.5625 -17.625 Z M 13.03125 -17.625 "/></g></g></g><g fill="#000000" fill-opacity="1"><g transform="translate(14.044386, 27.072842)"><g><path d="M 3.71875 -15.46875 C 2.96875 -15.46875 2.351562 -15.6875 1.875 -16.125 C 1.394531 -16.570312 1.15625 -17.125 1.15625 -17.78125 C 1.15625 -18.445312 1.394531 -19 1.875 -19.4375 C 2.351562 -19.882812 2.96875 -20.109375 3.71875 -20.109375 C 4.457031 -20.109375 5.0625 -19.882812 5.53125 -19.4375 C 6.007812 -19 6.25 -18.445312 6.25 -17.78125 C 6.25 -17.125 6.007812 -16.570312 5.53125 -16.125 C 5.0625 -15.6875 4.457031 -15.46875 3.71875 -15.46875 Z M 5.84375 -14.015625 L 5.84375 0 L 1.5625 0 L 1.5625 -14.015625 Z M 5.84375 -14.015625 "/></g></g></g><g fill="#000000" fill-opacity="1"><g transform="translate(21.451671, 27.072842)"><g><path d="M 10.09375 -14.15625 C 11.726562 -14.15625 13.035156 -13.625 14.015625 -12.5625 C 15.003906 -11.5 15.5 -10.039062 15.5 -8.1875 L 15.5 0 L 11.21875 0 L 11.21875 -7.609375 C 11.21875 -8.546875 10.972656 -9.273438 10.484375 -9.796875 C 10.003906 -10.316406 9.351562 -10.578125 8.53125 -10.578125 C 7.71875 -10.578125 7.066406 -10.316406 6.578125 -9.796875 C 6.085938 -9.273438 5.84375 -8.546875 5.84375 -7.609375 L 5.84375 0 L 1.5625 0 L 1.5625 -14.015625 L 5.84375 -14.015625 L 5.84375 -12.15625 C 6.28125 -12.769531 6.867188 -13.253906 7.609375 -13.609375 C 8.347656 -13.972656 9.175781 -14.15625 10.09375 -14.15625 Z M 10.09375 -14.15625 "/></g></g></g><g fill="#000000" fill-opacity="1"><g transform="translate(38.37544, 27.072842)"><g><path d="M 0.703125 -7.03125 C 0.703125 -8.46875 0.972656 -9.726562 1.515625 -10.8125 C 2.054688 -11.90625 2.796875 -12.742188 3.734375 -13.328125 C 4.671875 -13.921875 5.71875 -14.21875 6.875 -14.21875 C 7.863281 -14.21875 8.726562 -14.015625 9.46875 -13.609375 C 10.21875 -13.203125 10.796875 -12.675781 11.203125 -12.03125 L 11.203125 -14.015625 L 15.5 -14.015625 L 15.5 0 L 11.203125 0 L 11.203125 -1.984375 C 10.785156 -1.328125 10.203125 -0.796875 9.453125 -0.390625 C 8.710938 0.00390625 7.847656 0.203125 6.859375 0.203125 C 5.710938 0.203125 4.671875 -0.09375 3.734375 -0.6875 C 2.796875 -1.28125 2.054688 -2.125 1.515625 -3.21875 C 0.972656 -4.320312 0.703125 -5.59375 0.703125 -7.03125 Z M 11.203125 -7 C 11.203125 -8.070312 10.90625 -8.914062 10.3125 -9.53125 C 9.71875 -10.15625 8.992188 -10.46875 8.140625 -10.46875 C 7.285156 -10.46875 6.5625 -10.160156 5.96875 -9.546875 C 5.375 -8.941406 5.078125 -8.101562 5.078125 -7.03125 C 5.078125 -5.957031 5.375 -5.109375 5.96875 -4.484375 C 6.5625 -3.859375 7.285156 -3.546875 8.140625 -3.546875 C 8.992188 -3.546875 9.71875 -3.851562 10.3125 -4.46875 C 10.90625 -5.09375 11.203125 -5.9375 11.203125 -7 Z M 11.203125 -7 "/></g></g></g><g fill="#000000" fill-opacity="1"><g transform="translate(55.424752, 27.072842)"><g><path d="M 10.09375 -14.15625 C 11.726562 -14.15625 13.035156 -13.625 14.015625 -12.5625 C 15.003906 -11.5 15.5 -10.039062 15.5 -8.1875 L 15.5 0 L 11.21875 0 L 11.21875 -7.609375 C 11.21875 -8.546875 10.972656 -9.273438 10.484375 -9.796875 C 10.003906 -10.316406 9.351562 -10.578125 8.53125 -10.578125 C 7.71875 -10.578125 7.066406 -10.316406 6.578125 -9.796875 C 6.085938 -9.273438 5.84375 -8.546875 5.84375 -7.609375 L 5.84375 0 L 1.5625 0 L 1.5625 -14.015625 L 5.84375 -14.015625 L 5.84375 -12.15625 C 6.28125 -12.769531 6.867188 -13.253906 7.609375 -13.609375 C 8.347656 -13.972656 9.175781 -14.15625 10.09375 -14.15625 Z M 10.09375 -14.15625 "/></g></g></g><g fill="#000000" fill-opacity="1"><g transform="translate(72.348524, 27.072842)"><g><path d="M 0.703125 -7 C 0.703125 -8.457031 1 -9.726562 1.59375 -10.8125 C 2.1875 -11.90625 3.015625 -12.742188 4.078125 -13.328125 C 5.140625 -13.921875 6.359375 -14.21875 7.734375 -14.21875 C 9.492188 -14.21875 10.960938 -13.753906 12.140625 -12.828125 C 13.316406 -11.910156 14.09375 -10.613281 14.46875 -8.9375 L 9.890625 -8.9375 C 9.503906 -10.007812 8.757812 -10.546875 7.65625 -10.546875 C 6.875 -10.546875 6.25 -10.238281 5.78125 -9.625 C 5.3125 -9.019531 5.078125 -8.144531 5.078125 -7 C 5.078125 -5.863281 5.3125 -4.988281 5.78125 -4.375 C 6.25 -3.769531 6.875 -3.46875 7.65625 -3.46875 C 8.757812 -3.46875 9.503906 -4.003906 9.890625 -5.078125 L 14.46875 -5.078125 C 14.09375 -3.429688 13.3125 -2.140625 12.125 -1.203125 C 10.9375 -0.265625 9.472656 0.203125 7.734375 0.203125 C 6.359375 0.203125 5.140625 -0.0859375 4.078125 -0.671875 C 3.015625 -1.265625 2.1875 -2.101562 1.59375 -3.1875 C 1 -4.28125 0.703125 -5.550781 0.703125 -7 Z M 0.703125 -7 "/></g></g></g><g fill="#000000" fill-opacity="1"><g transform="translate(87.539736, 27.072842)"><g><path d="M 14.765625 -7.234375 C 14.765625 -6.828125 14.738281 -6.40625 14.6875 -5.96875 L 4.96875 -5.96875 C 5.039062 -5.101562 5.320312 -4.441406 5.8125 -3.984375 C 6.300781 -3.523438 6.910156 -3.296875 7.640625 -3.296875 C 8.703125 -3.296875 9.445312 -3.742188 9.875 -4.640625 L 14.4375 -4.640625 C 14.207031 -3.722656 13.785156 -2.894531 13.171875 -2.15625 C 12.554688 -1.414062 11.785156 -0.835938 10.859375 -0.421875 C 9.941406 -0.00390625 8.914062 0.203125 7.78125 0.203125 C 6.40625 0.203125 5.179688 -0.0859375 4.109375 -0.671875 C 3.046875 -1.265625 2.210938 -2.101562 1.609375 -3.1875 C 1.003906 -4.28125 0.703125 -5.550781 0.703125 -7 C 0.703125 -8.457031 1 -9.726562 1.59375 -10.8125 C 2.1875 -11.90625 3.019531 -12.742188 4.09375 -13.328125 C 5.164062 -13.921875 6.394531 -14.21875 7.78125 -14.21875 C 9.132812 -14.21875 10.335938 -13.929688 11.390625 -13.359375 C 12.453125 -12.785156 13.28125 -11.972656 13.875 -10.921875 C 14.46875 -9.867188 14.765625 -8.640625 14.765625 -7.234375 Z M 10.375 -8.359375 C 10.375 -9.097656 10.117188 -9.679688 9.609375 -10.109375 C 9.109375 -10.546875 8.484375 -10.765625 7.734375 -10.765625 C 7.015625 -10.765625 6.40625 -10.554688 5.90625 -10.140625 C 5.414062 -9.722656 5.113281 -9.128906 5 -8.359375 Z M 10.375 -8.359375 "/></g></g></g><g fill="#000000" fill-opacity="1"><g transform="translate(103.007154, 27.072842)"><g><path d="M 12.234375 -9.046875 C 13.253906 -8.828125 14.070312 -8.316406 14.6875 -7.515625 C 15.3125 -6.722656 15.625 -5.816406 15.625 -4.796875 C 15.625 -3.328125 15.109375 -2.160156 14.078125 -1.296875 C 13.046875 -0.429688 11.609375 0 9.765625 0 L 1.5625 0 L 1.5625 -17.625 L 9.484375 -17.625 C 11.273438 -17.625 12.675781 -17.210938 13.6875 -16.390625 C 14.707031 -15.578125 15.21875 -14.46875 15.21875 -13.0625 C 15.21875 -12.019531 14.941406 -11.15625 14.390625 -10.46875 C 13.847656 -9.78125 13.128906 -9.304688 12.234375 -9.046875 Z M 5.84375 -10.5 L 8.65625 -10.5 C 9.363281 -10.5 9.90625 -10.648438 10.28125 -10.953125 C 10.65625 -11.265625 10.84375 -11.722656 10.84375 -12.328125 C 10.84375 -12.929688 10.65625 -13.390625 10.28125 -13.703125 C 9.90625 -14.023438 9.363281 -14.1875 8.65625 -14.1875 L 5.84375 -14.1875 Z M 9.015625 -3.46875 C 9.734375 -3.46875 10.289062 -3.628906 10.6875 -3.953125 C 11.082031 -4.273438 11.28125 -4.75 11.28125 -5.375 C 11.28125 -5.988281 11.070312 -6.472656 10.65625 -6.828125 C 10.25 -7.179688 9.6875 -7.359375 8.96875 -7.359375 L 5.84375 -7.359375 L 5.84375 -3.46875 Z M 9.015625 -3.46875 "/></g></g></g><g fill="#000000" fill-opacity="1"><g transform="translate(119.554274, 27.072842)"><g><path d="M 5.84375 -11.671875 C 6.351562 -12.441406 6.984375 -13.046875 7.734375 -13.484375 C 8.484375 -13.929688 9.320312 -14.15625 10.25 -14.15625 L 10.25 -9.609375 L 9.0625 -9.609375 C 7.988281 -9.609375 7.179688 -9.378906 6.640625 -8.921875 C 6.109375 -8.460938 5.84375 -7.65625 5.84375 -6.5 L 5.84375 0 L 1.5625 0 L 1.5625 -14.015625 L 5.84375 -14.015625 Z M 5.84375 -11.671875 "/></g></g></g><g fill="#000000" fill-opacity="1"><g transform="translate(130.301113, 27.072842)"><g><path d="M 3.71875 -15.46875 C 2.96875 -15.46875 2.351562 -15.6875 1.875 -16.125 C 1.394531 -16.570312 1.15625 -17.125 1.15625 -17.78125 C 1.15625 -18.445312 1.394531 -19 1.875 -19.4375 C 2.351562 -19.882812 2.96875 -20.109375 3.71875 -20.109375 C 4.457031 -20.109375 5.0625 -19.882812 5.53125 -19.4375 C 6.007812 -19 6.25 -18.445312 6.25 -17.78125 C 6.25 -17.125 6.007812 -16.570312 5.53125 -16.125 C 5.0625 -15.6875 4.457031 -15.46875 3.71875 -15.46875 Z M 5.84375 -14.015625 L 5.84375 0 L 1.5625 0 L 1.5625 -14.015625 Z M 5.84375 -14.015625 "/></g></g></g><g fill="#000000" fill-opacity="1"><g transform="translate(137.708406, 27.072842)"><g><path d="M 0.703125 -7.03125 C 0.703125 -8.46875 0.972656 -9.726562 1.515625 -10.8125 C 2.054688 -11.90625 2.796875 -12.742188 3.734375 -13.328125 C 4.671875 -13.921875 5.71875 -14.21875 6.875 -14.21875 C 7.800781 -14.21875 8.644531 -14.023438 9.40625 -13.640625 C 10.164062 -13.253906 10.765625 -12.734375 11.203125 -12.078125 L 11.203125 -18.578125 L 15.5 -18.578125 L 15.5 0 L 11.203125 0 L 11.203125 -2.015625 C 10.796875 -1.335938 10.21875 -0.796875 9.46875 -0.390625 C 8.726562 0.00390625 7.863281 0.203125 6.875 0.203125 C 5.71875 0.203125 4.671875 -0.09375 3.734375 -0.6875 C 2.796875 -1.28125 2.054688 -2.125 1.515625 -3.21875 C 0.972656 -4.320312 0.703125 -5.59375 0.703125 -7.03125 Z M 11.203125 -7 C 11.203125 -8.070312 10.90625 -8.914062 10.3125 -9.53125 C 9.71875 -10.15625 8.992188 -10.46875 8.140625 -10.46875 C 7.285156 -10.46875 6.5625 -10.160156 5.96875 -9.546875 C 5.375 -8.941406 5.078125 -8.101562 5.078125 -7.03125 C 5.078125 -5.957031 5.375 -5.109375 5.96875 -4.484375 C 6.5625 -3.859375 7.285156 -3.546875 8.140625 -3.546875 C 8.992188 -3.546875 9.71875 -3.851562 10.3125 -4.46875 C 10.90625 -5.09375 11.203125 -5.9375 11.203125 -7 Z M 11.203125 -7 "/></g></g></g><g fill="#000000" fill-opacity="1"><g transform="translate(154.757726, 27.072842)"><g><path d="M 6.875 -14.21875 C 7.863281 -14.21875 8.726562 -14.015625 9.46875 -13.609375 C 10.21875 -13.203125 10.796875 -12.675781 11.203125 -12.03125 L 11.203125 -14.015625 L 15.5 -14.015625 L 15.5 -0.03125 C 15.5 1.257812 15.238281 2.425781 14.71875 3.46875 C 14.207031 4.519531 13.429688 5.351562 12.390625 5.96875 C 11.347656 6.59375 10.046875 6.90625 8.484375 6.90625 C 6.410156 6.90625 4.726562 6.414062 3.4375 5.4375 C 2.144531 4.457031 1.410156 3.128906 1.234375 1.453125 L 5.46875 1.453125 C 5.601562 1.992188 5.921875 2.414062 6.421875 2.71875 C 6.929688 3.03125 7.550781 3.1875 8.28125 3.1875 C 9.164062 3.1875 9.875 2.929688 10.40625 2.421875 C 10.9375 1.910156 11.203125 1.09375 11.203125 -0.03125 L 11.203125 -2.015625 C 10.785156 -1.359375 10.207031 -0.820312 9.46875 -0.40625 C 8.726562 0 7.863281 0.203125 6.875 0.203125 C 5.71875 0.203125 4.671875 -0.09375 3.734375 -0.6875 C 2.796875 -1.28125 2.054688 -2.125 1.515625 -3.21875 C 0.972656 -4.320312 0.703125 -5.59375 0.703125 -7.03125 C 0.703125 -8.46875 0.972656 -9.726562 1.515625 -10.8125 C 2.054688 -11.90625 2.796875 -12.742188 3.734375 -13.328125 C 4.671875 -13.921875 5.71875 -14.21875 6.875 -14.21875 Z M 11.203125 -7 C 11.203125 -8.070312 10.90625 -8.914062 10.3125 -9.53125 C 9.71875 -10.15625 8.992188 -10.46875 8.140625 -10.46875 C 7.285156 -10.46875 6.5625 -10.160156 5.96875 -9.546875 C 5.375 -8.941406 5.078125 -8.101562 5.078125 -7.03125 C 5.078125 -5.957031 5.375 -5.109375 5.96875 -4.484375 C 6.5625 -3.859375 7.285156 -3.546875 8.140625 -3.546875 C 8.992188 -3.546875 9.71875 -3.851562 10.3125 -4.46875 C 10.90625 -5.09375 11.203125 -5.9375 11.203125 -7 Z M 11.203125 -7 "/></g></g></g><g fill="#000000" fill-opacity="1"><g transform="translate(171.807031, 27.072842)"><g><path d="M 14.765625 -7.234375 C 14.765625 -6.828125 14.738281 -6.40625 14.6875 -5.96875 L 4.96875 -5.96875 C 5.039062 -5.101562 5.320312 -4.441406 5.8125 -3.984375 C 6.300781 -3.523438 6.910156 -3.296875 7.640625 -3.296875 C 8.703125 -3.296875 9.445312 -3.742188 9.875 -4.640625 L 14.4375 -4.640625 C 14.207031 -3.722656 13.785156 -2.894531 13.171875 -2.15625 C 12.554688 -1.414062 11.785156 -0.835938 10.859375 -0.421875 C 9.941406 -0.00390625 8.914062 0.203125 7.78125 0.203125 C 6.40625 0.203125 5.179688 -0.0859375 4.109375 -0.671875 C 3.046875 -1.265625 2.210938 -2.101562 1.609375 -3.1875 C 1.003906 -4.28125 0.703125 -5.550781 0.703125 -7 C 0.703125 -8.457031 1 -9.726562 1.59375 -10.8125 C 2.1875 -11.90625 3.019531 -12.742188 4.09375 -13.328125 C 5.164062 -13.921875 6.394531 -14.21875 7.78125 -14.21875 C 9.132812 -14.21875 10.335938 -13.929688 11.390625 -13.359375 C 12.453125 -12.785156 13.28125 -11.972656 13.875 -10.921875 C 14.46875 -9.867188 14.765625 -8.640625 14.765625 -7.234375 Z M 10.375 -8.359375 C 10.375 -9.097656 10.117188 -9.679688 9.609375 -10.109375 C 9.109375 -10.546875 8.484375 -10.765625 7.734375 -10.765625 C 7.015625 -10.765625 6.40625 -10.554688 5.90625 -10.140625 C 5.414062 -9.722656 5.113281 -9.128906 5 -8.359375 Z M 10.375 -8.359375 "/></g></g></g><g fill="#000000" fill-opacity="1"><g transform="translate(187.274442, 27.072842)"><g><path d="M 7.25 0.203125 C 6.03125 0.203125 4.941406 -0.00390625 3.984375 -0.421875 C 3.035156 -0.835938 2.285156 -1.410156 1.734375 -2.140625 C 1.179688 -2.867188 0.867188 -3.6875 0.796875 -4.59375 L 5.046875 -4.59375 C 5.097656 -4.101562 5.320312 -3.707031 5.71875 -3.40625 C 6.125 -3.113281 6.617188 -2.96875 7.203125 -2.96875 C 7.742188 -2.96875 8.160156 -3.070312 8.453125 -3.28125 C 8.742188 -3.488281 8.890625 -3.757812 8.890625 -4.09375 C 8.890625 -4.5 8.679688 -4.796875 8.265625 -4.984375 C 7.847656 -5.171875 7.171875 -5.382812 6.234375 -5.625 C 5.222656 -5.851562 4.382812 -6.097656 3.71875 -6.359375 C 3.050781 -6.617188 2.472656 -7.03125 1.984375 -7.59375 C 1.492188 -8.15625 1.25 -8.914062 1.25 -9.875 C 1.25 -10.675781 1.472656 -11.40625 1.921875 -12.0625 C 2.367188 -12.726562 3.019531 -13.253906 3.875 -13.640625 C 4.738281 -14.023438 5.765625 -14.21875 6.953125 -14.21875 C 8.710938 -14.21875 10.097656 -13.78125 11.109375 -12.90625 C 12.117188 -12.03125 12.703125 -10.875 12.859375 -9.4375 L 8.890625 -9.4375 C 8.816406 -9.925781 8.597656 -10.3125 8.234375 -10.59375 C 7.878906 -10.875 7.410156 -11.015625 6.828125 -11.015625 C 6.328125 -11.015625 5.941406 -10.921875 5.671875 -10.734375 C 5.398438 -10.546875 5.265625 -10.28125 5.265625 -9.9375 C 5.265625 -9.539062 5.476562 -9.238281 5.90625 -9.03125 C 6.332031 -8.832031 7 -8.632812 7.90625 -8.4375 C 8.945312 -8.164062 9.789062 -7.898438 10.4375 -7.640625 C 11.09375 -7.378906 11.664062 -6.960938 12.15625 -6.390625 C 12.65625 -5.816406 12.914062 -5.039062 12.9375 -4.0625 C 12.9375 -3.25 12.703125 -2.519531 12.234375 -1.875 C 11.773438 -1.226562 11.113281 -0.71875 10.25 -0.34375 C 9.394531 0.0195312 8.394531 0.203125 7.25 0.203125 Z M 7.25 0.203125 "/></g></g></g></g></g></g></svg>